<svg width="32" height="32" viewBox="0 0 32 32" fill="none" xmlns="http://www.w3.org/2000/svg">
  <path d="M25.333 10.667V5.333H6.667v5.334c1.473 0 2.666 1.194 2.666 2.666 0 1.473-1.193 2.667-2.666 2.667v5.333h18.666V16c-1.472 0-2.666-1.194-2.666-2.667 0-1.472 1.194-2.666 2.666-2.666zM28 4v8c-1.473 0-2.667 1.194-2.667 2.667 0 1.472 1.194 2.666 2.667 2.666v8H4v-8c1.473 0 2.667-1.194 2.667-2.666C6.667 13.194 5.473 12 4 12V4h24z" fill="#A200FF"/>
  <path d="M18.667 13.333h-5.334v-1.333h5.334v1.333zm-5.334 2.667h5.334v-1.333h-5.334V16z" fill="#A200FF"/>
</svg>
