<svg width="28" height="28" viewBox="0 0 28 28" fill="none" xmlns="http://www.w3.org/2000/svg">
  <path d="M22.167 9.333V4.667H5.833v4.666c1.289 0 2.334 1.045 2.334 2.334 0 1.288-1.045 2.333-2.334 2.333v4.667h16.334v-4.667c-1.289 0-2.334-1.045-2.334-2.333 0-1.289 1.045-2.334 2.334-2.334zM24.5 3.5v7c-1.289 0-2.333 1.045-2.333 2.333 0 1.289 1.044 2.334 2.333 2.334v7H3.5v-7c1.288 0 2.333-1.045 2.333-2.334 0-1.288-1.045-2.333-2.333-2.333v-7h21z" fill="#B427FF"/>
  <path d="M16.333 11.667h-4.667v-1.167h4.667v1.167zm-4.667 2.333h4.667v-1.167h-4.667v1.167z" fill="#B427FF"/>
</svg>
